<svg width="264" height="48" viewBox="0 0 264 48" fill="none" xmlns="http://www.w3.org/2000/svg">
<path d="M80.723 41V18.0909H86.8828V22.0881H87.1214C87.5391 20.6662 88.2401 19.5923 89.2244 18.8665C90.2088 18.1307 91.3423 17.7628 92.625 17.7628C92.9432 17.7628 93.2862 17.7827 93.6541 17.8224C94.022 17.8622 94.3452 17.9169 94.6236 17.9865V23.6243C94.3253 23.5348 93.9126 23.4553 93.3857 23.3857C92.8587 23.3161 92.3764 23.2812 91.9389 23.2812C91.0043 23.2812 90.169 23.4851 89.4332 23.8928C88.7074 24.2905 88.1307 24.8473 87.7031 25.5632C87.2855 26.2791 87.0767 27.1044 87.0767 28.0391V41H80.723ZM112.6 31.2457V18.0909H118.953V41H112.853V36.8388H112.615C112.097 38.1811 111.237 39.2599 110.034 40.0753C108.841 40.8906 107.384 41.2983 105.664 41.2983C104.133 41.2983 102.786 40.9503 101.622 40.2543C100.459 39.5582 99.5492 38.5689 98.8929 37.2862C98.2466 36.0036 97.9185 34.4673 97.9086 32.6776V18.0909H104.262V31.544C104.272 32.8963 104.635 33.9652 105.351 34.7507C106.067 35.5362 107.026 35.929 108.23 35.929C108.995 35.929 109.711 35.755 110.377 35.407C111.044 35.049 111.58 34.522 111.988 33.826C112.406 33.13 112.61 32.2699 112.6 31.2457ZM132.477 41.3729C130.737 41.3729 129.161 40.9254 127.749 40.0305C126.347 39.1257 125.234 37.7983 124.408 36.0483C123.593 34.2884 123.185 32.1307 123.185 29.5753C123.185 26.9503 123.608 24.7678 124.453 23.0277C125.298 21.2777 126.422 19.9702 127.824 19.1051C129.236 18.2301 130.782 17.7926 132.462 17.7926C133.745 17.7926 134.814 18.0114 135.669 18.4489C136.534 18.8764 137.23 19.4134 137.757 20.0597C138.294 20.696 138.702 21.3224 138.98 21.9389H139.174V10.4545H145.513V41H139.249V37.331H138.98C138.682 37.9673 138.259 38.5987 137.712 39.2251C137.175 39.8416 136.474 40.3537 135.609 40.7614C134.754 41.169 133.71 41.3729 132.477 41.3729ZM134.491 36.3168C135.515 36.3168 136.38 36.0384 137.086 35.4815C137.802 34.9148 138.349 34.1243 138.727 33.1101C139.114 32.0959 139.308 30.9077 139.308 29.5455C139.308 28.1832 139.119 27 138.741 25.9957C138.364 24.9915 137.817 24.2159 137.101 23.669C136.385 23.1222 135.515 22.8487 134.491 22.8487C133.447 22.8487 132.567 23.1321 131.851 23.6989C131.135 24.2656 130.593 25.0511 130.225 26.0554C129.857 27.0597 129.673 28.223 129.673 29.5455C129.673 30.8778 129.857 32.0561 130.225 33.0803C130.603 34.0945 131.145 34.8899 131.851 35.4666C132.567 36.0334 133.447 36.3168 134.491 36.3168ZM161.177 41.4474C158.82 41.4474 156.792 40.9702 155.092 40.0156C153.401 39.0511 152.099 37.6889 151.184 35.929C150.269 34.1591 149.812 32.0661 149.812 29.6499C149.812 27.2933 150.269 25.2251 151.184 23.4453C152.099 21.6655 153.387 20.2784 155.047 19.2841C156.718 18.2898 158.676 17.7926 160.923 17.7926C162.435 17.7926 163.842 18.0362 165.144 18.5234C166.457 19.0007 167.6 19.7216 168.575 20.6861C169.559 21.6506 170.325 22.8636 170.872 24.3253C171.419 25.777 171.692 27.4773 171.692 29.4261V31.1712H152.347V27.2337H165.711C165.711 26.3189 165.512 25.5085 165.115 24.8026C164.717 24.0966 164.165 23.5447 163.459 23.147C162.763 22.7393 161.953 22.5355 161.028 22.5355C160.063 22.5355 159.208 22.7592 158.463 23.2067C157.727 23.6442 157.15 24.2358 156.732 24.9815C156.315 25.7173 156.101 26.5376 156.091 27.4425V31.1861C156.091 32.3196 156.3 33.299 156.718 34.1243C157.145 34.9496 157.747 35.5859 158.522 36.0334C159.298 36.4808 160.218 36.7045 161.281 36.7045C161.987 36.7045 162.634 36.6051 163.22 36.4062C163.807 36.2074 164.309 35.9091 164.727 35.5114C165.144 35.1136 165.463 34.6264 165.681 34.0497L171.558 34.4375C171.259 35.8494 170.648 37.0824 169.723 38.1364C168.808 39.1804 167.625 39.9957 166.173 40.5824C164.732 41.1591 163.066 41.4474 161.177 41.4474Z" fill="black"/>
<path d="M179.552 41.3878C178.568 41.3878 177.722 41.0398 177.017 40.3438C176.32 39.6378 175.972 38.7926 175.972 37.8082C175.972 36.8338 176.32 35.9986 177.017 35.3026C177.722 34.6065 178.568 34.2585 179.552 34.2585C180.507 34.2585 181.342 34.6065 182.058 35.3026C182.774 35.9986 183.132 36.8338 183.132 37.8082C183.132 38.4645 182.963 39.0661 182.624 39.6129C182.296 40.1499 181.864 40.5824 181.327 40.9105C180.79 41.2287 180.198 41.3878 179.552 41.3878Z" fill="#FFDE59"/>
</svg>
